<svg xmlns="http://www.w3.org/2000/svg" width="10.223" height="14" viewBox="0 0 10.223 14">
  <path id="Arrowup" d="M-.185-8.812H-2.322a1.383,1.383,0,0,1-.79-.219.633.633,0,0,1-.325-.531.633.633,0,0,1,.325-.531l4-2.687A1.383,1.383,0,0,1,1.674-13a1.383,1.383,0,0,1,.79.219l4,2.687a.633.633,0,0,1,.325.531.633.633,0,0,1-.325.531,1.383,1.383,0,0,1-.79.219H3.533V.625A.316.316,0,0,1,3.37.891.691.691,0,0,1,2.975,1H.373A.691.691,0,0,1-.022.891.316.316,0,0,1-.185.625Z" transform="translate(3.438 13)" fill="#6dd230"/>
</svg>
