<svg xmlns="http://www.w3.org/2000/svg" width="10.206" height="14" viewBox="0 0 10.206 14">
  <path id="Arrow" d="M3.247,4.187H1.113a1.379,1.379,0,0,1-.789-.219A.633.633,0,0,1,0,3.437a.633.633,0,0,1,.325-.531L4.314.219A1.379,1.379,0,0,1,5.1,0a1.379,1.379,0,0,1,.789.219l3.99,2.687a.633.633,0,0,1,.325.531.633.633,0,0,1-.325.531,1.379,1.379,0,0,1-.789.219H6.959v9.437a.316.316,0,0,1-.162.266A.689.689,0,0,1,6.4,14H3.8a.689.689,0,0,1-.394-.109.316.316,0,0,1-.162-.266Z" transform="translate(10.206 14) rotate(180)" fill="#fe4d97"/>
</svg>
